# xmcd CD database file
#
# Track frame offsets:
#	150
#	19937
#	39140
#	53662
#	72052
#	91467
#	107142
#	125765
#	140727
#	159922
#
# Disc length: 2404 seconds
#
# Revision: 0
# Processed by: cddbd v1.5PL3 Copyright (c) Steve Scherf et al.
# Submitted via: CDex 1.50
#
DISCID=8109620a
DTITLE=中原めいこ - 2時までのシンデレラ-FRIDAY MAGIC-
DYEAR=1900
DGENRE=JPop
TTITLE0=FANTASY
TTITLE1=ジゴロ
TTITLE2=ココナッツの片想い
TTITLE3=パールのマニキュア
TTITLE4=Go away
TTITLE5=FRIDAY MAGIC
TTITLE6=恋の余韻
TTITLE7=ステキなじゃじゃ馬ならし
TTITLE8=ダイヤルまわして…
TTITLE9=2時までのシンデレラ
EXTD=
EXTT0=
EXTT1=
EXTT2=
EXTT3=
EXTT4=
EXTT5=
EXTT6=
EXTT7=
EXTT8=
EXTT9=
PLAYORDER=
